HIERARCHY
ROOT joint_Root
{
	OFFSET 0.0 0.0 0.0
	CHANNELS 6 Xposition Yposition Zposition Zrotation Xrotation Yrotation 
	JOINT Hips
	{
		OFFSET -17.1583 93.1646 452.98
		CHANNELS 6 Xposition Yposition Zposition Zrotation Xrotation Yrotation 
		JOINT Spine
		{
			OFFSET 15.7357 0.0 0.0
			CHANNELS 6 Xposition Yposition Zposition Zrotation Xrotation Yrotation 
			JOINT Chest
			{
				OFFSET 8.98455 -0.406207 0.0
				CHANNELS 6 Xposition Yposition Zposition Zrotation Xrotation Yrotation 
				JOINT Neck
				{
					OFFSET 16.3773 0.0 0.0
					CHANNELS 6 Xposition Yposition Zposition Zrotation Xrotation Yrotation 
					JOINT Head
					{
						OFFSET 6.45672 0.0 0.0
						CHANNELS 6 Xposition Yposition Zposition Zrotation Xrotation Yrotation 
						End Site
						{
							OFFSET 0.0 0.0 0.0
						}
					}
				}
				JOINT Shoulder_L
				{
					OFFSET 12.9942 -0.242716 4.98039
					CHANNELS 6 Xposition Yposition Zposition Zrotation Xrotation Yrotation 
					JOINT UpperArm_L
					{
						OFFSET 5.34809 0.0 0.0
						CHANNELS 6 Xposition Yposition Zposition Zrotation Xrotation Yrotation 
						JOINT LowerArm_L
						{
							OFFSET 24.3286 1.87007e-05 0.0
							CHANNELS 6 Xposition Yposition Zposition Zrotation Xrotation Yrotation 
							JOINT Hand_L
							{
								OFFSET 22.2916 0.0 0.0
								CHANNELS 6 Xposition Yposition Zposition Zrotation Xrotation Yrotation 
								End Site
								{
									OFFSET 0.0 0.0 0.0
								}
							}
						}
					}
				}
				JOINT Shoulder_R
				{
					OFFSET 12.9945 -0.242716 -4.98039
					CHANNELS 6 Xposition Yposition Zposition Zrotation Xrotation Yrotation 
					JOINT UpperArm_R
					{
						OFFSET -5.34813 0.0 0.0
						CHANNELS 6 Xposition Yposition Zposition Zrotation Xrotation Yrotation 
						JOINT LowerArm_R
						{
							OFFSET -24.3289 0.000322201 0.0
							CHANNELS 6 Xposition Yposition Zposition Zrotation Xrotation Yrotation 
							JOINT Hand_R
							{
								OFFSET -22.2915 -0.000108084 0.0
								CHANNELS 6 Xposition Yposition Zposition Zrotation Xrotation Yrotation 
								End Site
								{
									OFFSET 0.0 0.0 0.0
								}
							}
						}
					}
				}
			}
		}
		JOINT UpperLeg_L
		{
			OFFSET -2.19248 -6.46944 0.0
			CHANNELS 6 Xposition Yposition Zposition Zrotation Xrotation Yrotation 
			JOINT LowerLeg_L
			{
				OFFSET 39.0811 0.0 -1.23785e-05
				CHANNELS 6 Xposition Yposition Zposition Zrotation Xrotation Yrotation 
				JOINT Foot_L
				{
					OFFSET 40.9854 0.0 -1.26872e-05
					CHANNELS 6 Xposition Yposition Zposition Zrotation Xrotation Yrotation 
					JOINT Toes_L
					{
						OFFSET 11.7543 0.0 0.0
						CHANNELS 6 Xposition Yposition Zposition Zrotation Xrotation Yrotation 
						End Site
						{
							OFFSET 0.0 0.0 0.0
						}
					}
				}
			}
		}
		JOINT UpperLeg_R
		{
			OFFSET -2.19251 6.46944 0.0
			CHANNELS 6 Xposition Yposition Zposition Zrotation Xrotation Yrotation 
			JOINT LowerLeg_R
			{
				OFFSET -39.0811 -0.00228153 -0.0401928
				CHANNELS 6 Xposition Yposition Zposition Zrotation Xrotation Yrotation 
				JOINT Foot_R
				{
					OFFSET -40.9854 0.0 0.0
					CHANNELS 6 Xposition Yposition Zposition Zrotation Xrotation Yrotation 
					JOINT Toes_R
					{
						OFFSET -11.7543 0.0 0.0
						CHANNELS 6 Xposition Yposition Zposition Zrotation Xrotation Yrotation 
						End Site
						{
							OFFSET 0.0 0.0 0.0
						}
					}
				}
			}
		}
	}
}
MOTION
Frames:	6
Frame Time:	0.0333333
0.000000 0.000000 0.000000 0.000000 0.000000 -0.000000 -2.875120 91.819600 -1.729090 82.706100 -0.029811 5.906620 15.735700 0.000005 -0.000001 56.790900 86.058400 -53.304000 8.984550 -0.406207 -0.000000 -1.021440 -4.583820 6.933140 16.377300 -0.000001 -0.000001 8.461030 0.002954 6.369800 6.456720 -0.000001 -0.000000 1.793540 1.645910 11.942400 12.994200 -0.242716 4.980390 -92.032400 6.257090 -71.964600 5.348090 -0.000007 -0.000001 -75.763700 29.415300 2.437370 24.328600 0.000019 0.000005 12.951200 28.736700 -25.562800 22.291600 -0.000001 0.000005 -4.049330 5.034090 6.585840 12.994500 -0.242716 -4.980390 88.009300 5.321510 -69.455800 -5.348130 -0.000001 -0.000004 -70.941900 -4.419380 -13.456700 -24.328900 0.000322 -0.000009 15.467400 -16.735000 -136.139000 -22.291500 -0.000108 -0.000004 54.449700 5.647760 -14.810500 -2.192480 -6.469440 -0.000000 -170.845000 5.081670 -3.751360 39.081100 -0.000007 -0.000012 0.439026 -0.753277 30.235700 40.985400 -0.000006 -0.000013 0.915454 7.905230 -77.063300 11.754300 -0.000000 0.000003 0.000782 0.153225 -10.362700 -2.192510 6.469440 -0.000001 -169.293000 5.944170 -176.241000 -39.081100 -0.002282 -0.040193 0.130202 -0.421032 16.770000 -40.985400 0.000008 0.000006 4.802930 0.482740 -70.781300 -11.754300 -0.000006 -0.000006 -0.008676 0.261135 -5.966760
0.000000 0.000000 0.000000 0.000000 0.000000 -0.000000 -2.830210 91.820500 -1.754910 82.701800 -0.028098 5.940120 15.735700 0.000005 -0.000001 56.870600 86.061400 -53.386700 8.984550 -0.406207 -0.000000 -1.020970 -4.571130 6.927250 16.377300 -0.000001 -0.000001 8.565610 0.035433 6.324340 6.456720 -0.000001 -0.000000 1.789600 1.639920 11.864400 12.994200 -0.242716 4.980390 -92.032400 6.254400 -71.958000 5.348090 -0.000007 -0.000001 -75.702200 29.395900 2.555210 24.328600 0.000019 0.000005 12.956500 28.775200 -25.544900 22.291600 -0.000001 0.000005 -4.022460 5.036390 6.535620 12.994500 -0.242716 -4.980390 88.026100 5.280310 -69.469200 -5.348130 -0.000001 -0.000004 -70.986600 -4.386190 -13.443600 -24.328900 0.000322 -0.000009 15.609400 -16.831700 -136.024000 -22.291500 -0.000108 -0.000004 54.512800 5.647690 -14.799500 -2.192480 -6.469440 -0.000000 -170.874000 5.109560 -3.745650 39.081100 -0.000007 -0.000012 0.437651 -0.750329 30.255300 40.985400 -0.000006 -0.000013 0.938337 7.884780 -77.051800 11.754300 -0.000000 0.000003 0.000765 0.153559 -10.349100 -2.192510 6.469440 -0.000001 -169.331000 5.999060 -176.250000 -39.081100 -0.002282 -0.040193 0.130316 -0.420198 16.815600 -40.985400 0.000008 0.000006 4.775030 0.505372 -70.782100 -11.754300 -0.000006 -0.000006 -0.008573 0.260313 -6.000360
0.000000 0.000000 0.000000 0.000000 0.000000 -0.000000 -2.793360 91.818400 -1.770030 82.683400 0.030998 5.986210 15.735700 0.000005 -0.000001 56.918000 86.054900 -53.433100 8.984550 -0.406207 -0.000000 -1.006470 -4.572360 6.929820 16.377300 -0.000001 -0.000001 8.584100 0.031801 6.312280 6.456720 -0.000001 -0.000000 1.844310 1.658790 11.760100 12.994200 -0.242716 4.980390 -92.031600 6.257270 -71.972300 5.348090 -0.000007 -0.000001 -75.647000 29.348100 2.631820 24.328600 0.000019 0.000005 12.981100 28.849600 -25.536100 22.291600 -0.000001 0.000005 -3.964410 5.036800 6.526520 12.994500 -0.242716 -4.980390 88.032000 5.256100 -69.439000 -5.348130 -0.000001 -0.000004 -70.989400 -4.381220 -13.424500 -24.328900 0.000322 -0.000009 15.492000 -16.702300 -136.037000 -22.291500 -0.000108 -0.000004 54.484100 5.647840 -14.813100 -2.192480 -6.469440 -0.000000 -170.889000 5.147210 -3.751930 39.081100 -0.000007 -0.000012 0.440130 -0.753228 30.300000 40.985400 -0.000006 -0.000013 0.968983 7.894600 -77.043000 11.754300 -0.000000 0.000003 0.000688 0.155113 -10.286000 -2.192510 6.469440 -0.000001 -169.334000 5.986690 -176.239000 -39.081100 -0.002282 -0.040193 0.130670 -0.420477 16.849200 -40.985400 0.000008 0.000006 4.742910 0.461442 -70.779500 -11.754300 -0.000006 -0.000006 -0.008668 0.261066 -5.969560
0.000000 0.000000 0.000000 0.000000 0.000000 -0.000000 -2.742100 91.817500 -1.797370 82.680500 0.064394 5.979040 15.735700 0.000005 -0.000001 56.836600 86.065100 -53.348600 8.984550 -0.406207 -0.000000 -1.029470 -4.571610 6.935170 16.377300 -0.000001 -0.000001 8.603580 0.036264 6.288250 6.456720 -0.000001 -0.000000 1.844220 1.664520 11.640100 12.994200 -0.242716 4.980390 -92.034700 6.264850 -71.966400 5.348090 -0.000007 -0.000001 -75.627100 29.367100 2.740670 24.328600 0.000019 0.000005 12.943700 28.752400 -25.538400 22.291600 -0.000001 0.000005 -4.003570 5.037300 6.516000 12.994500 -0.242716 -4.980390 88.046200 5.216120 -69.432700 -5.348130 -0.000001 -0.000004 -71.005400 -4.428870 -13.373400 -24.328900 0.000322 -0.000009 15.556800 -16.755000 -135.999000 -22.291500 -0.000108 -0.000004 54.466700 5.645870 -14.634400 -2.192480 -6.469440 -0.000000 -170.916000 5.123540 -3.794940 39.081100 -0.000007 -0.000012 0.441410 -0.754673 30.324600 40.985400 -0.000006 -0.000013 1.017370 7.929460 -76.995300 11.754300 -0.000000 0.000003 0.000923 0.150298 -10.481400 -2.192510 6.469440 -0.000001 -169.365000 5.997890 -176.309000 -39.081100 -0.002282 -0.040193 0.131013 -0.419728 16.920500 -40.985400 0.000008 0.000006 4.707000 0.454256 -70.779600 -11.754300 -0.000006 -0.000006 -0.008617 0.260660 -5.986160
0.000000 0.000000 0.000000 0.000000 0.000000 -0.000000 -2.701720 91.825300 -1.811190 82.670900 0.072169 5.978140 15.735700 0.000005 -0.000001 56.780900 86.067200 -53.290800 8.984550 -0.406207 -0.000000 -1.037000 -4.576090 6.939040 16.377300 -0.000001 -0.000001 8.647650 0.054893 6.259870 6.456720 -0.000001 -0.000000 1.825900 1.675150 11.573400 12.994200 -0.242716 4.980390 -92.038900 6.273460 -71.954900 5.348090 -0.000007 -0.000001 -75.597000 29.380000 2.782730 24.328600 0.000019 0.000005 12.956300 28.823200 -25.510600 22.291600 -0.000001 0.000005 -3.979330 5.036500 6.533270 12.994500 -0.242716 -4.980390 88.062000 5.178120 -69.447900 -5.348130 -0.000001 -0.000004 -71.055100 -4.528530 -13.348700 -24.328900 0.000322 -0.000009 15.603200 -16.761600 -135.920000 -22.291500 -0.000108 -0.000004 54.487100 5.644640 -14.524300 -2.192480 -6.469440 -0.000000 -170.931000 5.119380 -3.798820 39.081100 -0.000007 -0.000012 0.436645 -0.747110 30.305100 40.985400 -0.000006 -0.000013 1.051650 7.948030 -76.974300 11.754300 -0.000000 0.000003 0.000832 0.152201 -10.404200 -2.192510 6.469440 -0.000001 -169.392000 6.016980 -176.298000 -39.081100 -0.002282 -0.040193 0.130206 -0.417939 16.887500 -40.985400 0.000008 0.000006 4.676370 0.477331 -70.790600 -11.754300 -0.000006 -0.000006 -0.008749 0.261708 -5.943350
0.000000 0.000000 0.000000 0.000000 0.000000 -0.000000 -2.650080 91.828400 -1.824090 82.687000 0.084191 6.027750 15.735700 0.000005 -0.000001 56.895300 86.069400 -53.420500 8.984550 -0.406207 -0.000000 -1.033320 -4.559230 6.908700 16.377300 -0.000001 -0.000001 8.665640 0.053025 6.236780 6.456720 -0.000001 -0.000000 1.854680 1.657950 11.558900 12.994200 -0.242716 4.980390 -92.035600 6.256070 -71.935700 5.348090 -0.000007 -0.000001 -75.588000 29.399700 2.784030 24.328600 0.000019 0.000005 12.893600 28.746700 -25.453100 22.291600 -0.000001 0.000005 -4.076630 5.034980 6.566390 12.994500 -0.242716 -4.980390 88.068600 5.158720 -69.441500 -5.348130 -0.000001 -0.000004 -71.090400 -4.675300 -13.268500 -24.328900 0.000322 -0.000009 15.499100 -16.624900 -135.894000 -22.291500 -0.000108 -0.000004 54.537900 5.646000 -14.645200 -2.192480 -6.469440 -0.000000 -170.987000 5.142990 -3.762340 39.081100 -0.000007 -0.000012 0.438573 -0.750296 30.308900 40.985400 -0.000006 -0.000013 1.076870 7.932620 -77.015500 11.754300 -0.000000 0.000003 0.000686 0.155138 -10.285000 -2.192510 6.469440 -0.000001 -169.456000 6.066390 -176.274000 -39.081100 -0.002282 -0.040193 0.130220 -0.417129 16.920300 -40.985400 0.000008 0.000006 4.645330 0.507737 -70.794700 -11.754300 -0.000006 -0.000006 -0.008705 0.261363 -5.957410
